<?xml version="1.0" encoding="UTF-8"?>
<svg id="Layer_1" data-name="Layer 1" xmlns="http://www.w3.org/2000/svg" xmlns:xlink="http://www.w3.org/1999/xlink" viewBox="0 0 160 160">
  <defs>
    <style>
      .cls-1 {
        fill: url(#linear-gradient-2);
      }

      .cls-2 {
        fill: url(#linear-gradient);
      }
    </style>
    <linearGradient id="linear-gradient" x1="56.79" y1="81.14" x2="103.21" y2="81.14" gradientUnits="userSpaceOnUse">
      <stop offset="0" stop-color="#040a73"/>
      <stop offset=".03" stop-color="#0f0974"/>
      <stop offset=".23" stop-color="#4b087c"/>
      <stop offset=".42" stop-color="#7e0782"/>
      <stop offset=".59" stop-color="#a50687"/>
      <stop offset=".76" stop-color="#c1068b"/>
      <stop offset=".9" stop-color="#d2068d"/>
      <stop offset="1" stop-color="#d9068e"/>
    </linearGradient>
    <linearGradient id="linear-gradient-2" x1="102.93" y1="81.31" x2="79.77" y2="104.76" gradientUnits="userSpaceOnUse">
      <stop offset="0" stop-color="#d9068e"/>
      <stop offset=".03" stop-color="#ca068c"/>
      <stop offset=".17" stop-color="#960785"/>
      <stop offset=".31" stop-color="#69087f"/>
      <stop offset=".45" stop-color="#45087b"/>
      <stop offset=".59" stop-color="#280977"/>
      <stop offset=".73" stop-color="#140975"/>
      <stop offset=".86" stop-color="#080973"/>
      <stop offset="1" stop-color="#040a73"/>
    </linearGradient>
  </defs>
  <g>
    <polygon class="cls-2" points="56.79 81.13 56.79 57.94 79.99 57.94 103.21 81.16 103.21 104.35 80.01 104.35 56.79 81.13"/>
    <rect class="cls-1" x="80.03" y="81.18" width="23.18" height="23.18"/>
  </g>
  <path d="M93.26,75.7v.55c0,.12.02.24.07.36.04.09.09.14.18.17l.96.33s.07.06.06.12c0,.04-.04.07-.07.1-.01,0-.03,0-.05,0h-.5s-2.12,0-2.12,0c-.06,0-.1-.05-.11-.09-.02-.05.01-.12.07-.14l.95-.33c.07-.03.13-.07.16-.14.05-.11.07-.22.07-.34v-1.86c0-.1-.01-.2-.04-.3-.01-.04-.07-.06-.1-.08-.11-.08-.19-.17-.28-.28l-1.96-2.53h3.02s2.06,0,2.06,0l-1.65,2.14-.32.42c-.1.13-.22.24-.36.33-.03.12-.04.22-.04.34v1.25Z"/>
  <g id="nsMvMC">
    <g>
      <path d="M80.87,70.67c.22-.04.41-.12.6-.23.06-.03.1-.08.14-.13.06-.08.05-.19,0-.26-.15-.2-.48-.31-.72-.36-.57-.12-1.16-.12-1.73.02-.22.05-.54.15-.67.34-.06.09-.06.2.01.28.15.18.45.28.67.33.56.12,1.14.13,1.71.02ZM81.88,70.99c.05-.08.05-.17,0-.25l-.2-.36c-.18.27-.58.37-.87.44-.61.12-1.38.1-1.96-.14-.14-.06-.36-.18-.42-.33l-.21.41c-.16.31.44.56.66.62.71.21,1.6.22,2.31.01.22-.06.55-.19.68-.4ZM79.43,75.7c-.27-.43-.47-.89-.61-1.37-.21-.71-.33-1.43-.38-2.16l-.03-.84c-.12-.06-.19-.15-.25-.28v.51s0,3.53,0,3.53c0,.11.06.21.13.28.26.28.74.41,1.11.47.47.08.94.08,1.41-.01.38-.07.78-.2,1.03-.51.04-.05.09-.12.09-.2l.04-4.08c-.06.12-.15.22-.27.29-.68.39-1.78.43-2.53.28.05.94.32,1.99.67,2.85.11.27.24.53.37.79.07.14.16.27.26.4-.23-.2-.41-.44-.58-.7-.68-1.03-1.07-2.22-1.11-3.46l-.17-.07c.03.42.07.81.15,1.22.21,1.09.58,2.27,1.35,3.11-.23,0-.44-.02-.67-.06ZM81.6,75.61c-.1.07-.18.12-.28.17-.24.12-.49.18-.76.22-.36.05-.71.04-1.06-.01-.34-.06-.72-.18-.98-.41.1.24.38.4.62.48.52.18,1.2.19,1.74.04.27-.07.62-.22.74-.5Z"/>
      <path d="M79.43,75.7c.22.04.44.07.67.06-.77-.84-1.14-2.02-1.35-3.11-.08-.4-.12-.8-.15-1.22l.17.07c.05,1.23.43,2.42,1.11,3.46.17.26.36.5.58.7-.09-.13-.18-.25-.26-.4-.13-.26-.26-.52-.37-.79-.35-.86-.62-1.91-.67-2.85.76.15,1.86.11,2.53-.28.12-.07.21-.17.27-.29l-.04,4.08c0,.08-.05.15-.09.2-.24.31-.65.44-1.03.51-.47.09-.94.09-1.41.01-.37-.06-.85-.19-1.11-.47-.07-.08-.13-.17-.13-.28v-3.53s0-.51,0-.51c.06.13.14.22.25.28l.03.84c.05.74.17,1.46.38,2.16.14.48.34.94.61,1.37Z"/>
      <path d="M81.88,70.99c-.13.2-.46.33-.68.4-.71.21-1.6.2-2.31-.01-.22-.07-.82-.31-.66-.62l.21-.41c.06.15.27.27.42.33.58.24,1.35.26,1.96.14.29-.07.69-.17.87-.44l.2.36c.04.08.04.16,0,.25Z"/>
      <path d="M80.87,70.67c-.56.12-1.14.1-1.71-.02-.22-.05-.52-.15-.67-.33-.07-.08-.08-.19-.01-.28.13-.19.45-.29.67-.34.57-.13,1.16-.14,1.73-.02.24.05.57.16.72.36.06.08.07.18,0,.26-.04.05-.09.1-.14.13-.19.11-.38.19-.6.23ZM80.74,70.65c.21-.04.6-.14.73-.29.06-.07.06-.16,0-.23-.07-.08-.16-.14-.25-.18-.59-.26-1.36-.25-1.98-.11-.2.05-.46.13-.59.28-.05.06-.05.14,0,.2.15.19.49.28.72.32.46.08.92.08,1.38,0Z"/>
      <path d="M81.6,75.61c-.12.28-.47.42-.74.5-.53.14-1.21.14-1.74-.04-.24-.08-.52-.24-.62-.48.26.23.65.35.98.41.35.05.7.06,1.06.01.27-.04.52-.11.76-.22.1-.05.19-.11.28-.17Z"/>
      <path d="M79.78,70.4l-.67-.26s.01-.1.05-.11c.57-.23.57-.06.69-.05h.55c.23.02.73.09.93.24.05.04.07.11.02.16l-.07.07c.07-.03.12-.08.16-.14.09-.14-.11-.26-.21-.31-.23-.1-.46-.16-.71-.18-.52-.05-1.04,0-1.54.16-.12.04-.42.17-.31.33.04.06.1.11.15.13-.03-.04-.06-.07-.06-.1-.01-.11.22-.21.3-.23l.02.12c.05.02.1.05.15.06l.54.2c.15.06.31.05.46,0,.07-.02.14-.04.19-.09.04-.04.02-.12,0-.15,0,.14-.29.2-.4.2-.09,0-.17-.01-.25-.04ZM79.81,70.17s.07.02.11,0c.01,0,.03-.04.03-.05,0-.01-.02-.03-.03-.04-.32-.12-.31-.11-.61-.02-.01,0-.03.03-.03.04,0,.07.1.08.19.06.21-.06.15-.08.36,0ZM80.33,70.29s-.18-.09-.23-.09c-.11.02-.22.07-.32.13.05.15.56.05.55-.04Z"/>
      <path d="M79.78,70.4c.08.03.16.05.25.04.1,0,.39-.06.4-.2.02.03.03.11,0,.15-.05.05-.12.06-.19.09-.15.05-.3.06-.46,0l-.54-.2c-.05-.02-.1-.04-.15-.06l-.02-.12c-.08.02-.31.12-.3.23,0,.03.03.06.06.1-.06-.02-.11-.07-.15-.13-.11-.16.19-.29.31-.33.5-.16,1.02-.21,1.54-.16.25.02.48.08.71.18.11.05.3.17.21.31-.04.06-.09.11-.16.14l.07-.07s.03-.12-.02-.16c-.2-.14-.69-.22-.93-.22h-.55c-.12-.01-.12-.19-.69.04-.04.02-.08.08-.05.11l.67.26Z"/>
      <path d="M79.81,70.17c-.21-.09-.15-.06-.36,0-.09.02-.19,0-.19-.06,0-.01.02-.04.03-.04.3-.1.3-.11.61.02.01,0,.03.03.03.04,0,.01-.01.04-.03.05-.04.02-.07.02-.11,0Z"/>
      <path d="M80.33,70.29c.01.08-.5.19-.55.04.1-.05.2-.11.32-.13.05,0,.23.05.23.09Z"/>
    </g>
  </g>
  <g id="QRDLkg">
    <g>
      <path d="M79.01,58.88c-.02.12-.02.22-.02.34l-.04,3.75c0,.15-.34.27-.46.31-.67.2-1.57.2-2.26.11-.27-.04-.71-.13-.91-.31-.05-.04-.07-.09-.07-.16l-.03-3.68c0-.13,0-.24-.02-.37.05.06.09.13.1.21l.08,1.51c.37-.2.87-.25,1.28-.28.04-.11.15-.16.26-.13l.38.12c.48.02,1.1.06,1.53.29l.08-1.5c0-.08.04-.16.1-.22ZM76.73,60.62l.02-.33s-.09.17-.09.21c0,.05.03.1.07.12ZM76.1,61.21c.25.05.5.07.75.09.09,0,.16.07.25.09-.02-.03-.06-.06-.06-.08.43,0,1.43-.06,1.72-.37.06-.07.06-.16,0-.22-.24-.26-.99-.35-1.34-.36l.32.11s.08.05.09.09c.01.05,0,.1-.04.13-.04.03-.1.06-.16.06l-.92-.02s-.14-.15-.12-.21l.04-.15c-.33.03-.98.11-1.2.35-.06.07-.06.17,0,.23.15.15.45.23.66.27ZM75.48,61.46v-.38s-.03-.03-.03-.04-.04,0-.04,0l.03.95c.06-.18.04-.36.04-.54ZM78.32,61.72c.02-.17,0-.33-.03-.49-.02-.02-.09,0-.08.03.03.16.06.31.07.47l.02.02s.02-.02.02-.03ZM75.98,61.79c.06-.12.1-.28.12-.42,0-.01-.04-.02-.04-.01-.04.09-.05.23-.1.33l-.19.36c-.08.03-.27.09-.27.19s.22.18.31.2c-.07-.04-.25-.13-.17-.23.03-.04.07-.07.11-.08,0,.05-.01.09,0,.13.01.03.05.06.09.06l.2.02c.25.02.49.12.72.22.06.03.15.01.19-.05l.43-.78s-.01.06-.03.09c-.09.2-.08.28-.06.49,0,.07.07.12.14.11l.38-.04.51-.03c.07,0,.11-.04.15-.09l.06-.1s.05.06.06.09c.01.09-.13.15-.19.18.08-.01.38-.12.3-.24-.02-.03-.06-.06-.1-.09.03-.05.05-.11.03-.16l-.17-.69s-.03.03-.02.04c.04.16.07.31.1.47.02.11.02.22-.01.32,0,.01-.03.03-.04.03,0,0-.02-.02-.03-.03l-.08-.14v.11c0,.06-.05.11-.11.1-.18-.01-.36.02-.53.08l-.19.07c-.06.02-.12-.02-.12-.08l-.03-.3c-.02-.19.08-.33-.05-.5-.02-.03-.02-.05-.02-.09h-.11s.11.23.11.23c.01.02.01.07.01.1-.09.04-.17.02-.24-.02-.19-.11-.4-.2-.61-.26-.08-.02-.16.01-.19.09,0,.01,0,.03,0,.04s.03.02.04.02h.16c.19.08.37.15.56.24.03.02.09.06.08.1l-.13.27c-.05.1,0,.31-.19.29-.06,0-.12-.02-.18-.04-.21-.09-.42-.15-.64-.21-.05-.01-.1-.05-.11-.08-.06-.1.03-.22.08-.33ZM77.85,62.02c-.05-.04-.11-.07-.18-.07s-.13.06-.14.14c.19-.11.15-.04.31-.07ZM76.73,62.28c.07.03.13-.03.14-.09,0-.03.03-.08.02-.11,0-.03-.07,0-.08.01-.13.15-.34-.08-.38,0,0,0,0,.04.02.04l.29.14ZM78.73,62.46c-.11.06-.21.11-.33.16-.74.24-1.93.24-2.65-.01-.11-.04-.2-.09-.3-.14.13.19.56.3.78.34.55.1,1.12.1,1.67,0,.23-.04.69-.15.82-.35ZM77.83,62.58c-.13-.04-.29,0-.4.03,0,0-.02.02-.02.02-.09.02.35.03.42-.05ZM78.36,62.82c-.18.06-.35.1-.53.13-.5.07-1,.07-1.5,0-.18-.03-.34-.07-.52-.13.16.12.33.19.52.24.5.13,1.02.13,1.52,0,.19-.05.36-.11.51-.24Z"/>
      <path d="M78.09,59.06c-.68.08-1.35.07-2.03,0-.16-.02-.9-.12-.89-.32,0-.19.7-.29.86-.31.69-.08,1.38-.08,2.08,0,.17.02.89.12.9.31.02.21-.75.31-.92.33ZM78.07,59.02c.15-.02.76-.11.77-.28s-.65-.27-.8-.29c-.64-.08-1.27-.08-1.91,0-.14.02-.81.11-.8.29s.65.27.8.29c.64.08,1.28.08,1.93,0Z"/>
      <path d="M75.73,60.96c-.07-.09-.06-.19.02-.27.06-.06.14-.1.21-.15-.13.02-.45.12-.46.26,0,.11.18.2.28.22l-.05-.07ZM78.65,60.9s.05-.11.01-.16c-.09-.1-.29-.17-.42-.19.14.09.33.19.25.38l-.03.08c.08-.02.14-.06.19-.11ZM78.32,60.89c0-.06-.06-.08-.1-.07-.42.11-.37.1-.81.11-.12,0-.13.12-.23.2l-.74-.35c-.1-.04-.2-.02-.26.08-.04.07-.07.16-.06.25,0,.03.06.04.09.05.54.09,1.08.1,1.62.02.15-.02.28-.05.42-.09.03,0,.07-.05.07-.08v-.11ZM77.57,60.8c-.27-.01-.52-.02-.79-.01.05.08.13.11.21.1.2-.02.39-.05.57-.09Z"/>
      <path d="M75.98,61.79c-.05.11-.14.23-.08.33.02.03.07.07.11.08.22.05.43.12.64.21.06.02.12.04.18.04.18.01.14-.19.19-.29l.13-.27s-.05-.08-.08-.1c-.18-.09-.36-.17-.56-.24h-.16s-.03-.01-.04-.02,0-.03,0-.04c.03-.07.11-.11.19-.09.21.06.42.15.61.26.08.04.16.06.24.02,0-.03,0-.08-.01-.1l-.11-.22h.11s0,.06.02.08c.13.17.03.31.05.5l.03.3c0,.06.06.1.12.08l.19-.07c.17-.06.34-.09.53-.08.06,0,.12-.04.11-.1v-.11s.07.14.07.14c0,0,.02.02.03.03.01,0,.03-.02.04-.03.03-.11.03-.21.01-.32-.03-.16-.06-.31-.1-.47,0-.01,0-.04.02-.04l.17.69c.01.06,0,.11-.03.16.03.03.08.05.1.09.08.12-.21.23-.3.24.06-.04.2-.09.19-.18,0-.03-.03-.06-.06-.09l-.06.1c-.03.05-.08.09-.15.09l-.51.03-.38.04c-.07,0-.13-.04-.14-.11-.02-.21-.04-.29.06-.49.01-.03.02-.06.03-.09l-.43.78c-.04.07-.13.08-.19.05-.23-.1-.47-.19-.72-.22l-.2-.02s-.08-.04-.09-.06c-.02-.04-.01-.08,0-.13-.04.01-.08.05-.11.08-.08.11.1.2.17.23-.09-.02-.31-.1-.31-.2s.19-.16.27-.19l.19-.36c.05-.1.07-.24.1-.33,0,0,.04,0,.04.01-.02.13-.06.29-.12.42Z"/>
      <path d="M78.36,62.82c-.15.12-.33.19-.51.24-.5.13-1.02.13-1.52,0-.19-.05-.37-.12-.52-.24.18.06.34.1.52.13.5.07,1,.07,1.5,0,.19-.03.35-.07.53-.13Z"/>
      <path d="M78.73,62.46c-.13.19-.6.31-.82.35-.56.09-1.12.09-1.67,0-.22-.04-.65-.15-.78-.34.1.06.19.11.3.14.73.26,1.92.26,2.65.01.11-.04.21-.09.33-.16Z"/>
      <path d="M76.73,62.28l-.29-.14s-.02-.03-.02-.04c.04-.09.26.14.38,0,.01-.02.07-.04.08-.01,0,.03-.01.07-.02.11-.01.06-.07.12-.14.09Z"/>
      <path d="M75.48,61.46c0,.19.01.37-.04.54l-.03-.95s.04-.02.04,0,.02.03.02.04v.38Z"/>
      <path d="M78.32,61.72s-.02.04-.02.03l-.02-.02c-.01-.16-.04-.31-.07-.47,0-.03.06-.05.08-.03.04.16.05.32.03.49Z"/>
      <path d="M77.83,62.58c-.07.07-.51.06-.42.05,0,0,.01-.02.02-.02.11-.03.28-.07.4-.03Z"/>
      <path d="M77.85,62.02c-.16.02-.12-.04-.31.07,0-.07.07-.13.14-.14s.13.03.18.07Z"/>
      <path d="M76.73,60.62s-.08-.07-.07-.12c0-.04.05-.22.09-.21l-.02.33Z"/>
      <path d="M78.32,60.89v.11s-.03.07-.07.08c-.14.04-.27.07-.42.09-.54.08-1.08.07-1.62-.02-.03,0-.09-.02-.09-.05,0-.09.02-.18.06-.25.06-.1.16-.12.26-.08l.74.35c.1-.08.11-.2.23-.2.44,0,.39,0,.81-.11.04-.01.1,0,.1.07ZM76.53,61.13c-.1-.08-.17-.15-.22-.26-.06.05-.07.11-.07.18s.21.08.28.09ZM77.33,61.11c.15-.05.29-.08.43-.13-.11,0-.21.02-.31.02-.06,0-.13.04-.11.11Z"/>
      <path d="M75.73,60.96l.05.07c-.1-.02-.29-.11-.28-.22,0-.14.33-.25.46-.26-.08.05-.15.09-.21.15-.07.08-.09.18-.02.27Z"/>
      <path d="M78.65,60.9c-.06.05-.11.09-.19.11l.03-.08c.08-.2-.12-.29-.25-.38.13.02.33.09.42.19.04.05.04.12-.01.16Z"/>
      <path d="M77.57,60.8c-.19.03-.38.06-.57.09-.08,0-.17-.02-.21-.1.27,0,.52,0,.79.01Z"/>
      <path d="M76.53,61.13c-.07,0-.27-.01-.28-.09s0-.13.07-.18c.04.12.12.18.22.26Z"/>
      <path d="M77.33,61.11c-.02-.07.05-.11.11-.11.11,0,.2-.03.31-.02-.14.05-.27.09-.43.13Z"/>
    </g>
  </g>
  <path d="M66.27,60.13v.55c0,.12.02.24.07.36.04.09.09.14.18.17l.96.33s.07.06.06.12c0,.04-.04.07-.07.1-.01,0-.03,0-.05,0h-.5s-2.12,0-2.12,0c-.06,0-.1-.05-.11-.09-.02-.05.01-.12.07-.14l.95-.33c.07-.03.13-.07.16-.14.05-.11.07-.22.07-.34v-1.86c0-.1-.01-.2-.04-.3-.01-.04-.07-.06-.1-.08-.11-.08-.19-.17-.28-.28l-1.96-2.53h3.02s2.06,0,2.06,0l-1.65,2.14-.32.42c-.1.13-.22.24-.36.33-.03.12-.04.22-.04.34v1.25Z"/>
</svg>